<svg width="360" height="245" fill="#ffffff" viewBox="0 0 360 245" xmlns="http://www.w3.org/2000/svg">
<path fill-rule="evenodd" clip-rule="evenodd" d="M356.519 79.9615H256.28V80.8146H356.519V79.9615Z"/>
<path fill-rule="evenodd" clip-rule="evenodd" d="M100.809 79.9615H0.570068V80.8146H100.809V79.9615Z"/>
<path fill-rule="evenodd" clip-rule="evenodd" d="M100.809 82.2167H0.570068V83.9326H100.809V82.2167Z"/>
<path fill-rule="evenodd" clip-rule="evenodd" d="M356.519 82.2167H256.28V83.9326H356.519V82.2167Z"/>
<path fill-rule="evenodd" clip-rule="evenodd" d="M356.519 162.188H256.28V161.335H356.519V162.188Z"/>
<path fill-rule="evenodd" clip-rule="evenodd" d="M100.809 162.188H0.570068V161.335H100.809V162.188Z"/>
<path fill-rule="evenodd" clip-rule="evenodd" d="M100.809 159.933H0.570068V158.217H100.809V159.933Z"/>
<path fill-rule="evenodd" clip-rule="evenodd" d="M356.519 159.933H256.28V158.217H356.519V159.933Z"/>
<path d="M284.676 70.2741C286.247 70.2741 287.52 69.001 287.52 67.4306C287.52 65.8601 286.247 64.587 284.676 64.587C283.106 64.587 281.833 65.8601 281.833 67.4306C281.833 69.001 283.106 70.2741 284.676 70.2741Z"/>
<path d="M72.4129 70.2741C73.9833 70.2741 75.2564 69.001 75.2564 67.4306C75.2564 65.8601 73.9833 64.587 72.4129 64.587C70.8425 64.587 69.5694 65.8601 69.5694 67.4306C69.5694 69.001 70.8425 70.2741 72.4129 70.2741Z"/>
<path fill-rule="evenodd" clip-rule="evenodd" d="M283 182.191C284.568 182.191 285.843 180.916 285.843 179.347C285.843 177.778 284.568 176.504 283 176.504C281.431 176.504 280.156 177.778 280.156 179.347C280.156 180.916 281.431 182.191 283 182.191Z"/>
<path fill-rule="evenodd" clip-rule="evenodd" d="M74.0994 182.191C75.6682 182.191 76.9429 180.916 76.9429 179.347C76.9429 177.778 75.6682 176.504 74.0994 176.504C72.5305 176.504 71.2559 177.778 71.2559 179.347C71.2559 180.916 72.5305 182.191 74.0994 182.191Z"/>
<path d="M4.15875 137.91V105.641H16.8075C21.916 105.641 26.0538 107.191 29.2111 110.299C32.3684 113.407 33.9372 117.231 33.9372 121.781C33.9372 126.33 32.3586 130.155 29.2111 133.263C26.0538 136.371 21.9258 137.92 16.8075 137.92H4.15875V137.91ZM9.93403 132.929H16.5624C19.9452 132.929 22.6906 131.88 24.7791 129.792C26.8676 127.703 27.9168 125.026 27.9168 121.771C27.9168 118.516 26.8676 115.849 24.7791 113.75C22.6906 111.652 19.9452 110.613 16.5624 110.613H9.93403V132.929Z"/>
<path d="M47.9293 118.28V105.632H52.3123V118.28H47.9293Z"/>
<path d="M78.3156 137.91V110.623H66.9612V105.641H95.4453V110.623H84.0909V137.91H78.3156Z"/>
<path d="M112.006 109.966C115.242 106.749 119.282 105.132 124.135 105.132C128.989 105.132 133.029 106.74 136.264 109.966C139.5 113.191 141.118 117.123 141.118 121.771C141.118 126.419 139.5 130.4 136.264 133.626C133.029 136.851 128.989 138.46 124.135 138.46C119.282 138.46 115.242 136.851 112.006 133.626C108.771 130.409 107.153 126.458 107.153 121.771C107.153 117.084 108.771 113.191 112.006 109.966ZM124.184 133.224C127.273 133.224 129.862 132.106 131.95 129.86C134.039 127.615 135.088 124.919 135.088 121.771C135.088 118.624 134.039 115.927 131.95 113.701C129.862 111.476 127.273 110.368 124.184 110.368C121.096 110.368 118.448 111.476 116.34 113.701C114.232 115.927 113.173 118.614 113.173 121.771C113.173 124.928 114.222 127.625 116.34 129.86C118.448 132.106 121.066 133.224 124.184 133.224Z"/>
<path d="M154.159 133.773L156.404 129.39C159.522 131.91 163.092 133.175 167.112 133.175C168.975 133.175 170.602 132.763 171.995 131.929C173.387 131.106 174.083 129.988 174.083 128.595C174.083 127.664 173.72 126.88 172.985 126.232C172.25 125.585 171.495 125.154 170.71 124.928C169.926 124.713 168.828 124.399 167.425 124.007C166.014 123.614 164.837 123.281 163.876 123.007C162.915 122.742 161.856 122.33 160.689 121.781C159.522 121.232 158.601 120.643 157.905 120.016C157.208 119.388 156.62 118.575 156.14 117.574C155.659 116.574 155.414 115.466 155.414 114.241C155.414 111.387 156.561 109.152 158.846 107.544C161.14 105.936 163.896 105.132 167.112 105.132C171.328 105.132 175.142 106.298 178.564 108.622L176.319 113.054C173.495 111.26 170.426 110.368 167.102 110.368C166.268 110.368 165.445 110.475 164.611 110.691C163.778 110.907 163.013 111.319 162.317 111.936C161.621 112.554 161.268 113.309 161.268 114.201C161.268 115.368 161.807 116.241 162.886 116.839C163.964 117.437 165.68 118.016 168.043 118.584C169.739 119.133 171.23 119.614 172.524 120.036C173.809 120.457 175.074 121.036 176.299 121.771C177.535 122.516 178.466 123.467 179.123 124.624C179.77 125.781 180.094 127.105 180.094 128.595C180.094 131.753 178.8 134.175 176.211 135.871C173.622 137.567 170.563 138.411 167.043 138.411C161.768 138.411 157.463 136.871 154.149 133.782L154.159 133.773Z"/>
<path d="M194.302 121.771C194.302 117.123 195.919 113.191 199.155 109.966C202.391 106.749 206.431 105.132 211.284 105.132C215.53 105.132 219.158 106.396 222.139 108.916L218.805 112.799C216.716 111.172 214.343 110.358 211.686 110.358C208.401 110.358 205.685 111.466 203.548 113.692C201.41 115.917 200.332 118.604 200.332 121.761C200.332 124.919 201.381 127.615 203.499 129.851C205.607 132.096 208.225 133.214 211.343 133.214C214.461 133.214 217.265 132.155 219.462 130.027L223.001 134.008C219.776 136.959 215.883 138.44 211.294 138.44C206.45 138.44 202.401 136.832 199.165 133.606C195.929 130.39 194.311 126.438 194.311 121.751L194.302 121.771Z"/>
<path d="M235.042 137.91L249.583 105.641H255.065L269.606 137.91H263.732L261.261 132.331H243.455L240.925 137.91H235.052H235.042ZM245.524 127.752H259.222L255.574 119.526C255.153 118.584 254.663 117.476 254.104 116.202C253.535 114.927 253.104 113.897 252.809 113.103L252.358 111.868C251.29 114.858 250.25 117.427 249.25 119.584L245.544 127.752H245.524Z"/>
<path d="M283.451 137.91V105.641H289.608L300.943 121.497C301.61 122.438 302.385 123.516 303.257 124.732C304.13 125.958 304.767 126.987 305.169 127.831L305.816 129.096V105.641H311.592V137.91H305.61L294.776 122.742C293.962 121.604 293.079 120.369 292.128 119.035C291.167 117.692 290.442 116.633 289.942 115.839L289.236 114.652V137.91H283.46H283.451Z"/>
<path d="M325.437 137.91L339.978 105.641H345.459L360 137.91H354.127L351.656 132.331H333.849L331.32 137.91H325.446H325.437ZM335.918 127.752H349.616L345.969 119.526C345.547 118.584 345.057 117.476 344.498 116.202C343.929 114.927 343.498 113.897 343.204 113.103L342.753 111.868C341.684 114.858 340.644 117.427 339.644 119.584L335.938 127.752H335.918Z"/>
<path d="M251.662 77.3141C248.701 74.4804 244.416 74.0784 240.523 74.3039C235.434 74.5883 230.277 75.5296 225.315 76.6866C225.286 76.6866 225.257 76.6964 225.227 76.7062C225.786 76.3238 226.325 75.9316 226.835 75.5296C228.277 74.4216 229.934 73.0194 230.091 71.078C230.13 70.6073 229.512 70.1465 229.071 70.2348C224.325 71.2545 221.531 74.4608 219.04 78.3437C217.167 78.9026 215.304 79.5007 213.461 80.1576C213.569 80.0596 213.677 79.9615 213.775 79.8635C215.461 78.3044 217.511 76.0787 217.452 73.6175C217.442 73.1861 216.893 72.6174 216.422 72.7645C211.735 74.2647 208.686 78.8633 206.146 82.8246C206.107 82.8835 206.097 82.9423 206.097 83.0011C201.793 84.8053 197.498 86.7173 192.919 87.6684C189.791 88.3254 185.918 88.8058 183.133 86.8448C180.3 84.8445 180.349 81.295 182.447 78.7555C184.496 76.265 188.33 75.7159 191.115 77.3729C192.89 78.4319 192.919 80.6675 191.772 82.2167C191.282 82.8835 190.625 83.3934 189.801 83.5306C187.467 83.9032 187.644 80.491 189.585 81.2362C190.193 81.4715 190.183 80.5989 189.713 80.393C188.458 79.8439 186.948 80.4518 186.742 81.9324C186.546 83.3345 187.899 84.5111 189.154 84.7857C193.233 85.6682 195.282 80.04 192.841 77.2847C190.262 74.3725 184.751 74.3137 181.947 76.8042C178.79 79.5889 178.456 84.168 181.525 87.1095C185.202 90.6394 190.968 89.8746 195.459 88.698C199.459 87.639 203.264 85.9917 207.088 84.3935C210.412 86.58 215.5 87.6978 219.236 86.5114C219.57 86.4036 219.697 86.0604 219.501 85.7466C218.216 83.6875 215.677 82.4619 213.01 82.0795C215.393 81.2166 217.805 80.4224 220.236 79.7164C223.433 81.9226 228.081 83.2071 231.816 81.9912C232.375 81.8049 232.169 81.2166 231.816 80.9126C230.404 79.6674 228.345 78.6574 226.218 78.1476C226.973 77.9711 227.728 77.8044 228.483 77.6573C233.395 76.6474 238.719 75.5786 243.759 75.8139C246.426 75.9316 249.25 76.5689 251.093 78.6574C252.348 80.0792 252.711 81.8833 251.662 83.56C249.927 86.3447 245.926 88.0606 242.955 86.1094C241.661 85.2661 241.622 83.6581 242.328 82.3932C242.631 81.8539 243.053 81.3637 243.681 81.2166C244.681 80.9813 245.073 82.0795 243.936 82.2658C242.935 82.4226 243.945 83.8738 244.73 83.766C248.299 83.2659 245.563 78.9516 242.769 79.687C239.249 80.6283 239.719 85.4721 242.19 87.2076C245.838 89.7667 250.976 88.2371 253.201 84.5602C254.751 81.9912 253.633 79.2556 251.633 77.3337L251.662 77.3141ZM223.129 74.8922C224.629 73.4018 226.365 72.4115 228.326 71.8428C227.6 73.1665 226.041 74.2255 224.933 74.9903C223.707 75.8237 222.384 76.4807 221.109 77.2357C221.756 76.4316 222.394 75.6276 223.129 74.8922ZM215.844 74.5294C215.275 76.2257 213.755 77.7456 212.539 78.8535C211.284 80.0008 209.941 80.8636 208.49 81.6186C210.676 78.932 212.637 75.9904 215.834 74.5294H215.844ZM217.863 85.423C214.628 86.2369 211.078 85.325 208.029 84.0307C208.372 83.8934 208.715 83.7463 209.058 83.6091C212.069 83.0796 215.961 83.3051 217.873 85.423H217.863ZM230.051 80.9911C227.129 81.599 223.913 80.7361 221.227 79.4419C221.413 79.3928 221.609 79.334 221.795 79.2752C224.59 79.1379 227.639 79.4909 230.051 80.9813V80.9911Z"/>
<path d="M104.466 84.5406C106.692 88.2175 111.83 89.7472 115.477 87.188C117.948 85.4623 118.419 80.6087 114.899 79.6674C112.114 78.9222 109.369 83.2463 112.938 83.7464C113.722 83.8542 114.742 82.403 113.732 82.2462C112.595 82.0599 112.987 80.9715 113.987 81.197C114.615 81.3441 115.036 81.8343 115.34 82.3736C116.046 83.6385 116.007 85.2466 114.713 86.0898C111.732 88.041 107.741 86.3251 106.006 83.5405C104.956 81.8638 105.319 80.0694 106.574 78.6378C108.408 76.5493 111.242 75.9218 113.909 75.7943C118.948 75.559 124.273 76.6278 129.185 77.6377C129.94 77.7946 130.695 77.9613 131.45 78.128C129.322 78.628 127.263 79.638 125.851 80.893C125.508 81.197 125.302 81.7951 125.851 81.9716C129.577 83.1875 134.235 81.903 137.431 79.6968C139.863 80.4028 142.275 81.197 144.658 82.0599C141.981 82.4521 139.451 83.6777 138.167 85.727C137.971 86.0408 138.098 86.384 138.431 86.4918C142.177 87.6881 147.256 86.5605 150.58 84.3739C154.404 85.9721 158.209 87.6292 162.209 88.6784C166.7 89.8648 172.465 90.6296 176.142 87.0899C179.211 84.1386 178.868 79.5693 175.721 76.7847C172.916 74.3039 167.396 74.3628 164.827 77.2651C162.386 80.0204 164.435 85.6486 168.514 84.7661C169.769 84.4916 171.132 83.3149 170.926 81.9128C170.72 80.4224 169.21 79.8243 167.955 80.3734C167.484 80.5793 167.474 81.4519 168.082 81.2166C170.024 80.4616 170.2 83.8738 167.867 83.511C167.043 83.3836 166.396 82.8639 165.896 82.1971C164.749 80.6479 164.778 78.4123 166.553 77.3534C169.337 75.6963 173.171 76.2552 175.221 78.7359C177.309 81.2754 177.368 84.8249 174.534 86.8252C171.759 88.7862 167.886 88.296 164.749 87.6488C160.17 86.6977 155.875 84.7857 151.57 82.9816C151.57 82.9227 151.561 82.8639 151.521 82.8051C148.982 78.8438 145.942 74.2549 141.245 72.7449C140.775 72.5978 140.226 73.1665 140.216 73.598C140.157 76.0591 142.206 78.2849 143.893 79.8439C144.001 79.9419 144.099 80.04 144.207 80.138C142.363 79.4909 140.5 78.883 138.627 78.3241C136.137 74.4412 133.333 71.2349 128.597 70.2152C128.165 70.1171 127.538 70.5878 127.577 71.0584C127.734 72.99 129.391 74.3922 130.832 75.51C131.352 75.912 131.891 76.3042 132.44 76.6866C132.411 76.6866 132.382 76.6768 132.352 76.667C127.391 75.51 122.233 74.5785 117.144 74.2843C113.242 74.0686 108.967 74.4608 106.006 77.2945C104.005 79.2065 102.878 81.952 104.437 84.521L104.466 84.5406ZM136.588 77.2357C135.323 76.4807 133.99 75.8237 132.764 74.9903C131.646 74.2255 130.097 73.1665 129.371 71.8428C131.332 72.4115 133.068 73.4019 134.568 74.8923C135.304 75.6178 135.941 76.4317 136.588 77.2357ZM149.207 81.6186C147.766 80.8636 146.413 80.0008 145.158 78.8536C143.952 77.7456 142.422 76.2258 141.853 74.5295C145.05 75.9806 147.011 78.932 149.198 81.6186H149.207ZM148.648 83.6091C148.992 83.7464 149.335 83.8934 149.678 84.0307C146.629 85.325 143.069 86.2369 139.843 85.4231C141.755 83.3051 145.648 83.0796 148.658 83.6091H148.648ZM135.911 79.285C136.098 79.334 136.294 79.3928 136.48 79.4517C133.794 80.746 130.568 81.6088 127.655 81.0009C130.068 79.5105 133.117 79.1477 135.911 79.2948V79.285Z"/>
<path d="M250.515 156.56C248.377 153.02 243.426 151.549 239.915 154.011C237.543 155.677 237.082 160.345 240.474 161.247C243.161 161.963 245.799 157.805 242.357 157.325C241.602 157.217 240.621 158.619 241.592 158.776C242.69 158.952 242.308 160.011 241.347 159.786C240.749 159.649 240.337 159.178 240.043 158.658C239.366 157.433 239.406 155.893 240.651 155.079C243.514 153.207 247.367 154.854 249.034 157.531C250.044 159.149 249.701 160.874 248.485 162.247C246.72 164.257 243.994 164.865 241.425 164.983C236.572 165.208 231.444 164.179 226.718 163.208C225.992 163.061 225.257 162.894 224.531 162.727C226.58 162.247 228.561 161.266 229.924 160.07C230.257 159.776 230.453 159.207 229.924 159.031C226.335 157.854 221.854 159.099 218.775 161.227C216.432 160.541 214.108 159.786 211.814 158.952C214.383 158.58 216.834 157.403 218.06 155.423C218.246 155.119 218.128 154.785 217.805 154.677C214.206 153.53 209.304 154.609 206.107 156.717C202.43 155.177 198.763 153.589 194.91 152.569C190.585 151.432 185.036 150.696 181.496 154.089C178.535 156.933 178.868 161.325 181.898 164.012C184.604 166.404 189.909 166.346 192.39 163.551C194.743 160.894 192.762 155.481 188.84 156.334C187.634 156.599 186.32 157.727 186.516 159.08C186.722 160.511 188.164 161.09 189.379 160.56C189.83 160.364 189.84 159.521 189.252 159.756C187.379 160.482 187.212 157.197 189.458 157.55C190.252 157.678 190.88 158.178 191.35 158.815C192.458 160.306 192.429 162.463 190.713 163.482C188.036 165.081 184.34 164.541 182.369 162.149C180.359 159.707 180.3 156.285 183.035 154.364C185.712 152.481 189.438 152.942 192.448 153.569C196.861 154.491 200.989 156.325 205.136 158.07C205.136 158.129 205.146 158.188 205.185 158.237C207.627 162.051 210.559 166.473 215.069 167.914C215.52 168.061 216.05 167.512 216.059 167.091C216.118 164.718 214.138 162.58 212.52 161.08C212.422 160.992 212.314 160.894 212.216 160.796C213.99 161.423 215.785 162.002 217.589 162.541C219.991 166.277 222.688 169.366 227.247 170.346C227.669 170.434 228.267 169.983 228.228 169.532C228.081 167.669 226.482 166.316 225.1 165.247C224.6 164.865 224.08 164.483 223.551 164.12C223.58 164.12 223.609 164.13 223.629 164.139C228.404 165.247 233.366 166.149 238.268 166.424C242.024 166.64 246.142 166.247 248.995 163.522C250.917 161.678 252.005 159.041 250.505 156.57L250.515 156.56ZM219.589 163.59C220.815 164.316 222.09 164.943 223.266 165.757C224.335 166.493 225.835 167.512 226.531 168.787C224.639 168.238 222.972 167.287 221.531 165.845C220.825 165.149 220.207 164.365 219.589 163.59ZM207.441 159.374C208.833 160.1 210.127 160.923 211.333 162.031C212.5 163.1 213.961 164.561 214.51 166.189C211.431 164.787 209.549 161.953 207.441 159.364V159.374ZM207.98 157.462C207.647 157.325 207.323 157.187 206.99 157.06C209.931 155.815 213.353 154.942 216.461 155.717C214.618 157.756 210.872 157.972 207.98 157.462ZM220.246 161.629C220.06 161.58 219.883 161.521 219.697 161.472C222.286 160.227 225.384 159.394 228.198 159.982C225.874 161.423 222.933 161.767 220.246 161.629Z"/>
<path d="M108.81 163.512C111.663 166.238 115.781 166.63 119.537 166.414C124.439 166.14 129.401 165.238 134.176 164.13C134.205 164.13 134.235 164.12 134.254 164.11C133.715 164.473 133.195 164.855 132.705 165.238C131.323 166.306 129.724 167.659 129.577 169.522C129.538 169.973 130.136 170.425 130.558 170.336C135.127 169.356 137.814 166.267 140.216 162.531C142.02 161.992 143.815 161.414 145.589 160.786C145.481 160.884 145.383 160.972 145.285 161.07C143.667 162.571 141.687 164.708 141.746 167.081C141.755 167.503 142.285 168.042 142.736 167.905C147.256 166.463 150.178 162.041 152.62 158.227C152.649 158.178 152.669 158.119 152.669 158.06C156.816 156.325 160.944 154.481 165.357 153.56C168.367 152.932 172.103 152.461 174.77 154.354C177.505 156.276 177.446 159.698 175.436 162.139C173.465 164.532 169.769 165.071 167.092 163.473C165.386 162.453 165.357 160.306 166.455 158.805C166.925 158.168 167.553 157.668 168.347 157.54C170.593 157.187 170.426 160.472 168.553 159.747C167.965 159.521 167.975 160.355 168.426 160.551C169.641 161.08 171.083 160.502 171.289 159.07C171.485 157.717 170.171 156.589 168.965 156.325C165.033 155.472 163.062 160.894 165.415 163.541C167.896 166.346 173.201 166.395 175.907 164.002C178.947 161.315 179.27 156.913 176.309 154.079C172.769 150.677 167.22 151.412 162.895 152.559C159.042 153.569 155.375 155.168 151.698 156.707C148.501 154.599 143.599 153.52 140 154.668C139.677 154.775 139.549 155.109 139.745 155.413C140.981 157.393 143.422 158.57 145.991 158.943C143.697 159.776 141.373 160.541 139.03 161.217C135.961 159.09 131.48 157.854 127.881 159.021C127.342 159.198 127.538 159.776 127.881 160.06C129.244 161.257 131.225 162.237 133.274 162.718C132.548 162.884 131.823 163.041 131.087 163.198C126.361 164.169 121.233 165.198 116.38 164.973C113.811 164.855 111.095 164.247 109.32 162.237C108.114 160.864 107.771 159.139 108.771 157.521C110.447 154.844 114.291 153.187 117.154 155.07C118.399 155.883 118.439 157.423 117.762 158.648C117.478 159.168 117.056 159.639 116.458 159.776C115.497 160.002 115.115 158.943 116.213 158.766C117.184 158.609 116.203 157.217 115.448 157.315C112.006 157.795 114.654 161.953 117.331 161.237C120.713 160.335 120.262 155.668 117.89 154.001C114.379 151.54 109.428 153.01 107.29 156.55C105.8 159.021 106.878 161.659 108.8 163.502L108.81 163.512ZM136.274 165.845C134.833 167.287 133.166 168.228 131.274 168.787C131.98 167.512 133.47 166.493 134.539 165.757C135.715 164.953 137 164.316 138.216 163.59C137.588 164.365 136.98 165.14 136.274 165.845ZM143.285 166.198C143.834 164.571 145.295 163.11 146.462 162.041C147.668 160.933 148.972 160.109 150.355 159.384C148.246 161.972 146.354 164.806 143.285 166.208V166.198ZM141.334 155.717C144.442 154.932 147.864 155.815 150.806 157.06C150.472 157.197 150.149 157.335 149.815 157.462C146.923 157.972 143.177 157.756 141.334 155.717ZM129.597 159.992C132.411 159.403 135.509 160.237 138.098 161.482C137.912 161.531 137.735 161.59 137.549 161.639C134.862 161.776 131.921 161.433 129.597 159.992Z"/>
<path d="M83.6006 61.665L74.4523 54.7327L75.776 52.9874L82.6985 53.1835C83.1103 53.1933 83.581 53.2129 84.1105 53.2227C84.64 53.2423 85.0714 53.2816 85.395 53.3404L85.895 53.4286L79.2471 48.3888L80.4924 46.7513L89.6406 53.6836L88.3561 55.3799L81.7278 55.1936C81.2277 55.1838 80.6885 55.1642 80.1099 55.1446C79.5216 55.1249 79.0706 55.1053 78.7372 55.0759L78.247 55.0171L84.8361 60.0079L83.5908 61.6454L83.6006 61.665Z"/>
<path d="M100.103 41.1623C100.034 42.437 99.5046 43.545 98.5339 44.4863C97.5632 45.4276 96.4356 45.9178 95.1609 45.9571C93.8862 45.9963 92.7684 45.5158 91.8075 44.5255L86.9343 39.5052L88.4051 38.0737L93.2293 43.0449C93.8078 43.643 94.4843 43.947 95.2491 43.9568C96.014 43.9666 96.6709 43.6921 97.2298 43.1528C97.7887 42.6135 98.0731 41.9565 98.0927 41.1917C98.1123 40.4269 97.8279 39.7405 97.2396 39.1424L92.4154 34.1712L93.8862 32.7396L98.7594 37.7599C99.7203 38.7502 100.162 39.8876 100.093 41.1525L100.103 41.1623Z"/>
<path d="M108.035 35.8871L101.328 26.5819L108.555 21.3754L109.594 22.8069L104.035 26.8173L105.672 29.0823L110.918 25.3073L111.948 26.729L106.702 30.504L108.682 33.2495L114.438 29.1019L115.477 30.5432L108.055 35.8969L108.035 35.8871Z"/>
<path d="M125.077 24.9838L115.575 16.9631L117.429 16.0022L122.88 20.5518L124.861 22.4148C124.665 21.2186 124.537 20.3165 124.479 19.7184L123.9 12.639L125.773 11.6683L126.851 24.0523L125.077 24.974V24.9838Z"/>
<path d="M135.009 9.54045C135.735 8.08928 136.912 7.08914 138.549 6.54005C140.187 5.99096 141.726 6.0694 143.187 6.79499C144.648 7.51077 145.638 8.65798 146.158 10.217C146.687 11.7956 146.589 13.3057 145.864 14.7666C145.138 16.2178 143.962 17.2179 142.324 17.767C140.687 18.3161 139.147 18.2377 137.686 17.5121C136.225 16.7963 135.235 15.6491 134.705 14.0705C134.176 12.5016 134.274 10.9916 135 9.54045H135.009ZM141.755 15.9923C142.795 15.6393 143.54 14.9725 143.991 13.9822C144.442 12.9919 144.491 11.9623 144.128 10.9034C143.765 9.84441 143.108 9.05019 142.157 8.54032C141.196 8.03044 140.206 7.952 139.157 8.29519C138.108 8.64817 137.353 9.32473 136.892 10.3053C136.431 11.2858 136.382 12.3153 136.745 13.3841C137.108 14.4529 137.765 15.2373 138.726 15.7472C139.686 16.257 140.696 16.3453 141.746 15.9923H141.755Z"/>
<path d="M168.631 12.0212L162.944 0.970717L165.023 0.794223L168.308 7.08917L169.426 9.56989C169.71 8.38346 169.936 7.5108 170.112 6.93229L172.299 0.176494L174.397 0L170.632 11.8447L168.641 12.0114L168.631 12.0212Z"/>
<path d="M179.682 11.3545L185.467 0.176514L187.408 0.284371L191.958 12.0212L189.87 11.9036L189.095 9.87388L182.771 9.53069L181.761 11.4623L179.672 11.3545H179.682ZM183.594 7.95205L188.458 8.21679L187.32 5.2262C187.193 4.88302 187.036 4.48101 186.859 4.02016C186.683 3.55931 186.546 3.18672 186.457 2.89256L186.32 2.44152C185.879 3.48087 185.467 4.37315 185.065 5.11834L183.594 7.95205Z"/>
<path d="M198.861 13.0507L201.155 1.81396L203.165 2.22578L201.224 11.727L207.95 13.0998L207.597 14.8353L198.851 13.0507H198.861Z"/>
<path d="M214.785 16.8944L218.648 6.08905L220.58 6.78522L217.314 15.9237L223.786 18.2377L223.188 19.9046L214.785 16.9042V16.8944Z"/>
<path d="M229.13 22.4343L239.121 14.7764L240.837 15.6981L239.955 28.2488L238.111 27.2585L238.278 25.0915L232.709 22.0911L230.973 23.4148L229.13 22.4245V22.4343ZM234.121 21.0224L238.405 23.3266L238.651 20.1399C238.68 19.7771 238.709 19.3457 238.749 18.8554C238.788 18.3651 238.827 17.9631 238.866 17.669L238.935 17.2081C238.092 17.9631 237.337 18.5907 236.66 19.1005L234.121 21.0322V21.0224Z"/>
<path d="M245.759 32.1121L252.672 22.954L256.516 25.8564C257.82 26.8369 258.565 27.9155 258.771 29.1019C258.977 30.2883 258.692 31.3865 257.928 32.3965C257.447 33.024 256.839 33.4947 256.104 33.7888C255.359 34.083 254.594 34.1516 253.79 33.9751V38.1619L251.77 36.6519L251.848 33.2495C251.554 33.0632 251.064 32.7004 250.368 32.1709L249.044 31.1708L247.397 33.3476L245.759 32.1121ZM250.113 29.7589L252.417 31.4944C253.094 32.0043 253.79 32.22 254.486 32.1317C255.192 32.0435 255.761 31.7003 256.212 31.112C256.663 30.5139 256.829 29.8667 256.722 29.1705C256.614 28.4646 256.231 27.8665 255.555 27.3566L253.241 25.6113L250.103 29.7687L250.113 29.7589Z"/>
<path d="M261.399 45.2314L268.292 38.3972L265.448 35.5341L266.703 34.2888L273.832 41.476L272.577 42.7213L269.733 39.8582L262.84 46.6924L261.399 45.2314Z"/>
<path d="M268.811 53.0462L281.088 50.2714L282.264 51.8304L276.214 62.8613L274.959 61.1944L276.018 59.302L272.214 54.2425L270.086 54.7131L268.831 53.0462H268.811ZM273.94 53.8503L276.871 57.7429L278.43 54.9485C278.607 54.6249 278.813 54.2523 279.058 53.8209C279.303 53.3894 279.499 53.0462 279.656 52.7913L279.911 52.3991C278.832 52.7325 277.881 52.9874 277.058 53.1639L273.949 53.8601L273.94 53.8503Z"/>
<path d="M85.8656 187.211C87.2187 186.26 88.6993 185.936 90.2976 186.221C91.8958 186.505 93.1901 187.358 94.1706 188.77C95.0335 190.006 95.4061 191.319 95.2786 192.702L93.4647 192.516C93.5137 191.574 93.2686 190.721 92.7293 189.947C92.0625 188.986 91.18 188.427 90.1015 188.25C89.0131 188.084 88.013 188.319 87.0913 188.956C86.1696 189.594 85.6009 190.457 85.3754 191.525C85.1498 192.594 85.3558 193.584 85.9931 194.496C86.65 195.438 87.5129 196.006 88.5719 196.212L88.1306 198.056C86.6108 197.722 85.3852 196.879 84.4537 195.545C83.4633 194.134 83.1104 192.624 83.3947 191.025C83.6791 189.427 84.4929 188.152 85.8656 187.201V187.211Z"/>
<path d="M102.819 201.968C104.447 201.939 105.878 202.517 107.123 203.703C108.369 204.89 109.016 206.302 109.055 207.92C109.094 209.547 108.545 210.95 107.408 212.146C106.261 213.352 104.868 213.97 103.25 213.999C101.632 214.028 100.191 213.45 98.9459 212.263C97.7006 211.077 97.0534 209.665 97.0142 208.047C96.975 206.429 97.5241 205.008 98.6713 203.811C99.8087 202.615 101.191 201.997 102.819 201.968ZM100.24 210.94C101.034 211.695 101.976 212.048 103.064 211.979C104.152 211.92 105.084 211.479 105.859 210.665C106.633 209.851 107.025 208.91 107.035 207.822C107.035 206.733 106.653 205.812 105.859 205.057C105.055 204.292 104.113 203.939 103.025 203.988C101.936 204.047 101.005 204.478 100.23 205.282C99.4557 206.096 99.0635 207.047 99.0537 208.135C99.0537 209.234 99.4459 210.155 100.25 210.93L100.24 210.94Z"/>
<path d="M113.997 224.324L120.037 214.568L121.9 215.725L122.361 222.637C122.39 223.049 122.419 223.52 122.449 224.049C122.488 224.579 122.488 225.01 122.449 225.344L122.41 225.844L126.802 218.754L128.548 219.833L122.508 229.589L120.704 228.471L120.262 221.863C120.233 221.372 120.194 220.833 120.154 220.245C120.115 219.657 120.096 219.205 120.086 218.872V218.382L115.742 225.412L113.997 224.334V224.324Z"/>
<path d="M134.872 235.61L138.804 224.834L143.03 226.373C144.736 226.991 145.932 228.02 146.609 229.442C147.286 230.864 147.344 232.335 146.795 233.854C146.236 235.374 145.246 236.463 143.814 237.11C142.383 237.767 140.814 237.777 139.108 237.159L134.882 235.619L134.872 235.61ZM137.412 234.649L139.628 235.453C140.755 235.864 141.804 235.845 142.756 235.404C143.707 234.962 144.383 234.198 144.775 233.109C145.168 232.021 145.148 231.001 144.707 230.05C144.266 229.099 143.471 228.413 142.344 228.001L140.128 227.197L137.412 234.649Z"/>
<path d="M160.268 232.766C161.562 231.795 163.072 231.423 164.778 231.668C166.484 231.903 167.827 232.678 168.808 233.962C169.789 235.257 170.161 236.718 169.936 238.355C169.7 240.002 168.935 241.316 167.641 242.287C166.347 243.258 164.837 243.63 163.131 243.385C161.425 243.15 160.081 242.375 159.101 241.091C158.12 239.796 157.748 238.326 157.973 236.678C158.199 235.041 158.964 233.737 160.268 232.766ZM163.405 241.551C164.494 241.699 165.455 241.434 166.308 240.747C167.151 240.061 167.661 239.159 167.808 238.051C167.955 236.943 167.729 235.943 167.102 235.06C166.474 234.178 165.621 233.658 164.533 233.501C163.435 233.345 162.454 233.609 161.611 234.286C160.758 234.962 160.258 235.864 160.101 236.972C159.944 238.08 160.179 239.081 160.817 239.973C161.444 240.865 162.317 241.395 163.415 241.542L163.405 241.551Z"/>
<path d="M182.457 244.444L181.584 233.001L183.369 232.864L185.124 234.982L187.997 238.443L190.301 234.6L191.723 232.227L193.507 232.09L194.38 243.532L192.331 243.689L191.723 235.747C191.517 236.188 191.183 236.776 190.742 237.531L188.242 241.777L185.104 237.943L183.908 236.365L184.506 244.287L182.457 244.444Z"/>
<path d="M207.666 240.895L204.793 229.785L206.784 229.275L209.657 240.385L207.666 240.895Z"/>
<path d="M222.472 236.237L217.775 225.765L219.775 224.873L225.757 228.373C226.11 228.579 226.521 228.815 226.982 229.089C227.443 229.364 227.796 229.599 228.051 229.815L228.443 230.128L225.031 222.52L226.904 221.676L231.601 232.148L229.659 233.021L223.943 229.677C223.511 229.423 223.05 229.158 222.541 228.864C222.031 228.569 221.648 228.324 221.364 228.148L220.962 227.863L224.345 235.404L222.472 236.247V236.237Z"/>
<path d="M243.23 225.324L236.856 215.784L238.562 214.646L244.936 224.187L243.23 225.324Z"/>
<path d="M249.74 208.027C249.779 206.4 250.427 204.998 251.682 203.811C252.927 202.625 254.368 202.046 255.986 202.085C257.614 202.125 258.987 202.742 260.134 203.939C261.281 205.145 261.83 206.557 261.791 208.184C261.752 209.812 261.105 211.214 259.849 212.401C258.604 213.587 257.163 214.166 255.545 214.126C253.927 214.087 252.535 213.469 251.388 212.263C250.25 211.067 249.701 209.655 249.74 208.037V208.027ZM258.575 211.028C259.369 210.273 259.761 209.351 259.751 208.253C259.742 207.165 259.349 206.213 258.575 205.4C257.8 204.586 256.869 204.154 255.79 204.096C254.702 204.037 253.77 204.38 252.976 205.145C252.172 205.91 251.77 206.841 251.77 207.929C251.77 209.018 252.162 209.969 252.937 210.783C253.711 211.597 254.643 212.028 255.731 212.087C256.82 212.146 257.771 211.793 258.575 211.028Z"/>
<path d="M270.772 197.879L269.959 196.33C271.331 195.938 272.43 195.163 273.253 193.996C273.636 193.457 273.851 192.898 273.891 192.32C273.94 191.741 273.753 191.31 273.351 191.025C273.087 190.839 272.783 190.78 272.439 190.859C272.106 190.937 271.822 191.074 271.596 191.251C271.371 191.437 271.057 191.692 270.655 192.016C270.253 192.339 269.91 192.624 269.635 192.839C269.361 193.065 269.027 193.29 268.625 193.516C268.223 193.741 267.87 193.888 267.537 193.967C267.213 194.045 266.85 194.045 266.468 193.977C266.076 193.908 265.703 193.751 265.35 193.506C264.517 192.918 264.105 192.133 264.105 191.133C264.105 190.133 264.438 189.172 265.095 188.241C265.958 187.015 267.076 186.142 268.458 185.632L269.282 187.191C268.184 187.643 267.292 188.349 266.615 189.319C266.448 189.564 266.301 189.819 266.203 190.113C266.095 190.398 266.056 190.702 266.095 191.035C266.135 191.369 266.282 191.623 266.537 191.8C266.87 192.035 267.243 192.065 267.635 191.869C268.027 191.672 268.547 191.3 269.194 190.731C269.704 190.349 270.145 190.015 270.537 189.731C270.92 189.437 271.351 189.192 271.822 188.986C272.292 188.78 272.763 188.701 273.224 188.751C273.685 188.8 274.145 188.976 274.577 189.28C275.489 189.927 275.93 190.8 275.891 191.898C275.852 192.996 275.469 194.055 274.753 195.085C273.675 196.614 272.341 197.556 270.763 197.879H270.772Z"/>
</svg>
