<svg width="200"  viewBox="0 0 367 121" class="h-8" fill="none" xmlns="http://www.w3.org/2000/svg">
<path fill-rule="evenodd" clip-rule="evenodd" d="M363.02 16.55H260.79V17.42H363.02V16.55Z" fill="#541920"/>
<path fill-rule="evenodd" clip-rule="evenodd" d="M102.23 16.55H0V17.42H102.23V16.55Z" fill="#541920"/>
<path fill-rule="evenodd" clip-rule="evenodd" d="M102.23 18.85H0V20.6H102.23V18.85Z" fill="#541920"/>
<path fill-rule="evenodd" clip-rule="evenodd" d="M363.02 18.85H260.79V20.6H363.02V18.85Z" fill="#541920"/>
<path fill-rule="evenodd" clip-rule="evenodd" d="M363.02 100.41H260.79V99.54H363.02V100.41Z" fill="#541920"/>
<path fill-rule="evenodd" clip-rule="evenodd" d="M102.23 100.41H0V99.54H102.23V100.41Z" fill="#541920"/>
<path fill-rule="evenodd" clip-rule="evenodd" d="M102.23 98.11H0V96.36H102.23V98.11Z" fill="#541920"/>
<path fill-rule="evenodd" clip-rule="evenodd" d="M363.02 98.11H260.79V96.36H363.02V98.11Z" fill="#541920"/>
<path d="M289.75 6.67C291.352 6.67 292.65 5.37162 292.65 3.77C292.65 2.16837 291.352 0.869995 289.75 0.869995C288.148 0.869995 286.85 2.16837 286.85 3.77C286.85 5.37162 288.148 6.67 289.75 6.67Z" fill="#541920"/>
<path d="M73.27 6.67C74.8716 6.67 76.17 5.37162 76.17 3.77C76.17 2.16837 74.8716 0.869995 73.27 0.869995C71.6684 0.869995 70.37 2.16837 70.37 3.77C70.37 5.37162 71.6684 6.67 73.27 6.67Z" fill="#541920"/>
<path fill-rule="evenodd" clip-rule="evenodd" d="M288.04 120.81C289.64 120.81 290.94 119.51 290.94 117.91C290.94 116.31 289.64 115.01 288.04 115.01C286.44 115.01 285.14 116.31 285.14 117.91C285.14 119.51 286.44 120.81 288.04 120.81Z" fill="#541920"/>
<path fill-rule="evenodd" clip-rule="evenodd" d="M74.99 120.81C76.59 120.81 77.89 119.51 77.89 117.91C77.89 116.31 76.59 115.01 74.99 115.01C73.39 115.01 72.09 116.31 72.09 117.91C72.09 119.51 73.39 120.81 74.99 120.81Z" fill="#541920"/>
<path d="M3.66003 75.65V42.7401H16.56C21.77 42.7401 25.99 44.3201 29.21 47.4901C32.43 50.6601 34.03 54.5601 34.03 59.2001C34.03 63.8401 32.42 67.74 29.21 70.91C25.99 74.08 21.78 75.66 16.56 75.66H3.66003V75.65ZM9.55003 70.57H16.31C19.76 70.57 22.56 69.5 24.69 67.37C26.82 65.24 27.89 62.51 27.89 59.19C27.89 55.87 26.82 53.15 24.69 51.01C22.56 48.87 19.76 47.8101 16.31 47.8101H9.55003V70.57Z" fill="#541920"/>
<path d="M48.3 55.63V42.73H52.7701V55.63H48.3Z" fill="#541920"/>
<path d="M79.2901 75.65V47.82H67.7101V42.7401H96.7601V47.82H85.1801V75.65H79.2901Z" fill="#541920"/>
<path d="M113.65 47.15C116.95 43.87 121.07 42.22 126.02 42.22C130.97 42.22 135.09 43.86 138.39 47.15C141.69 50.44 143.34 54.45 143.34 59.19C143.34 63.93 141.69 67.99 138.39 71.28C135.09 74.57 130.97 76.21 126.02 76.21C121.07 76.21 116.95 74.57 113.65 71.28C110.35 68 108.7 63.97 108.7 59.19C108.7 54.41 110.35 50.44 113.65 47.15ZM126.07 70.87C129.22 70.87 131.86 69.73 133.99 67.44C136.12 65.15 137.19 62.4 137.19 59.19C137.19 55.98 136.12 53.23 133.99 50.96C131.86 48.69 129.22 47.56 126.07 47.56C122.92 47.56 120.22 48.69 118.07 50.96C115.92 53.23 114.84 55.97 114.84 59.19C114.84 62.41 115.91 65.16 118.07 67.44C120.22 69.73 122.89 70.87 126.07 70.87Z" fill="#541920"/>
<path d="M156.64 71.43L158.93 66.96C162.11 69.53 165.75 70.82 169.85 70.82C171.75 70.82 173.41 70.4 174.83 69.55C176.25 68.71 176.96 67.57 176.96 66.15C176.96 65.2 176.59 64.4 175.84 63.74C175.09 63.08 174.32 62.64 173.52 62.41C172.72 62.19 171.6 61.87 170.17 61.47C168.73 61.07 167.53 60.73 166.55 60.45C165.57 60.18 164.49 59.76 163.3 59.2C162.11 58.64 161.17 58.04 160.46 57.4C159.75 56.76 159.15 55.93 158.66 54.91C158.17 53.89 157.92 52.76 157.92 51.51C157.92 48.6 159.09 46.32 161.42 44.68C163.76 43.04 166.57 42.22 169.85 42.22C174.15 42.22 178.04 43.41 181.53 45.78L179.24 50.3C176.36 48.47 173.23 47.56 169.84 47.56C168.99 47.56 168.15 47.67 167.3 47.89C166.45 48.11 165.67 48.53 164.96 49.16C164.25 49.79 163.89 50.56 163.89 51.47C163.89 52.66 164.44 53.55 165.54 54.16C166.64 54.77 168.39 55.36 170.8 55.94C172.53 56.5 174.05 56.99 175.37 57.42C176.68 57.85 177.97 58.44 179.22 59.19C180.48 59.95 181.43 60.92 182.1 62.1C182.76 63.28 183.09 64.63 183.09 66.15C183.09 69.37 181.77 71.84 179.13 73.57C176.49 75.3 173.37 76.16 169.78 76.16C164.4 76.16 160.01 74.59 156.63 71.44L156.64 71.43Z" fill="#541920"/>
<path d="M197.58 59.19C197.58 54.45 199.23 50.44 202.53 47.15C205.83 43.87 209.95 42.22 214.9 42.22C219.23 42.22 222.93 43.51 225.97 46.08L222.57 50.04C220.44 48.38 218.02 47.55 215.31 47.55C211.96 47.55 209.19 48.68 207.01 50.95C204.83 53.22 203.73 55.96 203.73 59.18C203.73 62.4 204.8 65.15 206.96 67.43C209.11 69.72 211.78 70.86 214.96 70.86C218.14 70.86 221 69.78 223.24 67.61L226.85 71.67C223.56 74.68 219.59 76.19 214.91 76.19C209.97 76.19 205.84 74.55 202.54 71.26C199.24 67.98 197.59 63.95 197.59 59.17L197.58 59.19Z" fill="#541920"/>
<path d="M239.13 75.65L253.96 42.7401H259.55L274.38 75.65H268.39L265.87 69.96H247.71L245.13 75.65H239.14H239.13ZM249.82 65.29H263.79L260.07 56.9C259.64 55.94 259.14 54.81 258.57 53.51C257.99 52.21 257.55 51.16 257.25 50.35L256.79 49.09C255.7 52.14 254.64 54.76 253.62 56.96L249.84 65.29H249.82Z" fill="#541920"/>
<path d="M288.5 75.65V42.7401H294.78L306.34 58.91C307.02 59.87 307.81 60.97 308.7 62.21C309.59 63.46 310.24 64.51 310.65 65.37L311.31 66.66V42.7401H317.2V75.65H311.1L300.05 60.18C299.22 59.02 298.32 57.76 297.35 56.4C296.37 55.03 295.63 53.95 295.12 53.14L294.4 51.93V75.65H288.51H288.5Z" fill="#541920"/>
<path d="M331.32 75.65L346.15 42.7401H351.74L366.57 75.65H360.58L358.06 69.96H339.9L337.32 75.65H331.33H331.32ZM342.01 65.29H355.98L352.26 56.9C351.83 55.94 351.33 54.81 350.76 53.51C350.18 52.21 349.74 51.16 349.44 50.35L348.98 49.09C347.89 52.14 346.83 54.76 345.81 56.96L342.03 65.29H342.01Z" fill="#541920"/>
<path d="M256.08 13.85C253.06 10.96 248.69 10.55 244.72 10.78C239.53 11.07 234.27 12.03 229.21 13.21C229.18 13.21 229.15 13.22 229.12 13.23C229.69 12.84 230.24 12.44 230.76 12.03C232.23 10.9 233.92 9.46999 234.08 7.48999C234.12 7.00999 233.49 6.53999 233.04 6.62999C228.2 7.66999 225.35 10.94 222.81 14.9C220.9 15.47 219 16.08 217.12 16.75C217.23 16.65 217.34 16.55 217.44 16.45C219.16 14.86 221.25 12.59 221.19 10.08C221.18 9.63998 220.62 9.05998 220.14 9.20998C215.36 10.74 212.25 15.43 209.66 19.47C209.62 19.53 209.61 19.59 209.61 19.65C205.22 21.49 200.84 23.44 196.17 24.41C192.98 25.08 189.03 25.57 186.19 23.57C183.3 21.53 183.35 17.91 185.49 15.32C187.58 12.78 191.49 12.22 194.33 13.91C196.14 14.99 196.17 17.27 195 18.85C194.5 19.53 193.83 20.05 192.99 20.19C190.61 20.57 190.79 17.09 192.77 17.85C193.39 18.09 193.38 17.2 192.9 16.99C191.62 16.43 190.08 17.05 189.87 18.56C189.67 19.99 191.05 21.19 192.33 21.47C196.49 22.37 198.58 16.63 196.09 13.82C193.46 10.85 187.84 10.79 184.98 13.33C181.76 16.17 181.42 20.84 184.55 23.84C188.3 27.44 194.18 26.66 198.76 25.46C202.84 24.38 206.72 22.7 210.62 21.07C214.01 23.3 219.2 24.44 223.01 23.23C223.35 23.12 223.48 22.77 223.28 22.45C221.97 20.35 219.38 19.1 216.66 18.71C219.09 17.83 221.55 17.02 224.03 16.3C227.29 18.55 232.03 19.86 235.84 18.62C236.41 18.43 236.2 17.83 235.84 17.52C234.4 16.25 232.3 15.22 230.13 14.7C230.9 14.52 231.67 14.35 232.44 14.2C237.45 13.17 242.88 12.08 248.02 12.32C250.74 12.44 253.62 13.09 255.5 15.22C256.78 16.67 257.15 18.51 256.08 20.22C254.31 23.06 250.23 24.81 247.2 22.82C245.88 21.96 245.84 20.32 246.56 19.03C246.87 18.48 247.3 17.98 247.94 17.83C248.96 17.59 249.36 18.71 248.2 18.9C247.18 19.06 248.21 20.54 249.01 20.43C252.65 19.92 249.86 15.52 247.01 16.27C243.42 17.23 243.9 22.17 246.42 23.94C250.14 26.55 255.38 24.99 257.65 21.24C259.23 18.62 258.09 15.83 256.05 13.87L256.08 13.85ZM226.98 11.38C228.51 9.85999 230.28 8.84999 232.28 8.26999C231.54 9.61999 229.95 10.7 228.82 11.48C227.57 12.33 226.22 13 224.92 13.77C225.58 12.95 226.23 12.13 226.98 11.38ZM219.55 11.01C218.97 12.74 217.42 14.29 216.18 15.42C214.9 16.59 213.53 17.47 212.05 18.24C214.28 15.5 216.28 12.5 219.54 11.01H219.55ZM221.61 22.12C218.31 22.95 214.69 22.02 211.58 20.7C211.93 20.56 212.28 20.41 212.63 20.27C215.7 19.73 219.67 19.96 221.62 22.12H221.61ZM234.04 17.6C231.06 18.22 227.78 17.34 225.04 16.02C225.23 15.97 225.43 15.91 225.62 15.85C228.47 15.71 231.58 16.07 234.04 17.59V17.6Z" fill="#541920"/>
<path d="M105.96 21.22C108.23 24.97 113.47 26.53 117.19 23.92C119.71 22.16 120.19 17.21 116.6 16.25C113.76 15.49 110.96 19.9 114.6 20.41C115.4 20.52 116.44 19.04 115.41 18.88C114.25 18.69 114.65 17.58 115.67 17.81C116.31 17.96 116.74 18.46 117.05 19.01C117.77 20.3 117.73 21.94 116.41 22.8C113.37 24.79 109.3 23.04 107.53 20.2C106.46 18.49 106.83 16.66 108.11 15.2C109.98 13.07 112.87 12.43 115.59 12.3C120.73 12.06 126.16 13.15 131.17 14.18C131.94 14.34 132.71 14.51 133.48 14.68C131.31 15.19 129.21 16.22 127.77 17.5C127.42 17.81 127.21 18.42 127.77 18.6C131.57 19.84 136.32 18.53 139.58 16.28C142.06 17 144.52 17.81 146.95 18.69C144.22 19.09 141.64 20.34 140.33 22.43C140.13 22.75 140.26 23.1 140.6 23.21C144.42 24.43 149.6 23.28 152.99 21.05C156.89 22.68 160.77 24.37 164.85 25.44C169.43 26.65 175.31 27.43 179.06 23.82C182.19 20.81 181.84 16.15 178.63 13.31C175.77 10.78 170.14 10.84 167.52 13.8C165.03 16.61 167.12 22.35 171.28 21.45C172.56 21.17 173.95 19.97 173.74 18.54C173.53 17.02 171.99 16.41 170.71 16.97C170.23 17.18 170.22 18.07 170.84 17.83C172.82 17.06 173 20.54 170.62 20.17C169.78 20.04 169.12 19.51 168.61 18.83C167.44 17.25 167.47 14.97 169.28 13.89C172.12 12.2 176.03 12.77 178.12 15.3C180.25 17.89 180.31 21.51 177.42 23.55C174.59 25.55 170.64 25.05 167.44 24.39C162.77 23.42 158.39 21.47 154 19.63C154 19.57 153.99 19.51 153.95 19.45C151.36 15.41 148.26 10.73 143.47 9.19001C142.99 9.04001 142.43 9.62001 142.42 10.06C142.36 12.57 144.45 14.84 146.17 16.43C146.28 16.53 146.38 16.63 146.49 16.73C144.61 16.07 142.71 15.45 140.8 14.88C138.26 10.92 135.4 7.65001 130.57 6.61001C130.13 6.51001 129.49 6.99001 129.53 7.47001C129.69 9.44001 131.38 10.87 132.85 12.01C133.38 12.42 133.93 12.82 134.49 13.21C134.46 13.21 134.43 13.2 134.4 13.19C129.34 12.01 124.08 11.06 118.89 10.76C114.91 10.54 110.55 10.94 107.53 13.83C105.49 15.78 104.34 18.58 105.93 21.2L105.96 21.22ZM138.72 13.77C137.43 13 136.07 12.33 134.82 11.48C133.68 10.7 132.1 9.62001 131.36 8.27001C133.36 8.85001 135.13 9.86001 136.66 11.38C137.41 12.12 138.06 12.95 138.72 13.77ZM151.59 18.24C150.12 17.47 148.74 16.59 147.46 15.42C146.23 14.29 144.67 12.74 144.09 11.01C147.35 12.49 149.35 15.5 151.58 18.24H151.59ZM151.02 20.27C151.37 20.41 151.72 20.56 152.07 20.7C148.96 22.02 145.33 22.95 142.04 22.12C143.99 19.96 147.96 19.73 151.03 20.27H151.02ZM138.03 15.86C138.22 15.91 138.42 15.97 138.61 16.03C135.87 17.35 132.58 18.23 129.61 17.61C132.07 16.09 135.18 15.72 138.03 15.87V15.86Z" fill="#541920"/>
<path d="M254.91 94.67C252.73 91.06 247.68 89.56 244.1 92.07C241.68 93.77 241.21 98.53 244.67 99.45C247.41 100.18 250.1 95.94 246.59 95.45C245.82 95.34 244.82 96.77 245.81 96.93C246.93 97.11 246.54 98.19 245.56 97.96C244.95 97.82 244.53 97.34 244.23 96.81C243.54 95.56 243.58 93.99 244.85 93.16C247.77 91.25 251.7 92.93 253.4 95.66C254.43 97.31 254.08 99.07 252.84 100.47C251.04 102.52 248.26 103.14 245.64 103.26C240.69 103.49 235.46 102.44 230.64 101.45C229.9 101.3 229.15 101.13 228.41 100.96C230.5 100.47 232.52 99.47 233.91 98.25C234.25 97.95 234.45 97.37 233.91 97.19C230.25 95.99 225.68 97.26 222.54 99.43C220.15 98.73 217.78 97.96 215.44 97.11C218.06 96.73 220.56 95.53 221.81 93.51C222 93.2 221.88 92.86 221.55 92.75C217.88 91.58 212.88 92.68 209.62 94.83C205.87 93.26 202.13 91.64 198.2 90.6C193.79 89.44 188.13 88.69 184.52 92.15C181.5 95.05 181.84 99.53 184.93 102.27C187.69 104.71 193.1 104.65 195.63 101.8C198.03 99.09 196.01 93.57 192.01 94.44C190.78 94.71 189.44 95.86 189.64 97.24C189.85 98.7 191.32 99.29 192.56 98.75C193.02 98.55 193.03 97.69 192.43 97.93C190.52 98.67 190.35 95.32 192.64 95.68C193.45 95.81 194.09 96.32 194.57 96.97C195.7 98.49 195.67 100.69 193.92 101.73C191.19 103.36 187.42 102.81 185.41 100.37C183.36 97.88 183.3 94.39 186.09 92.43C188.82 90.51 192.62 90.98 195.69 91.62C200.19 92.56 204.4 94.43 208.63 96.21C208.63 96.27 208.64 96.33 208.68 96.38C211.17 100.27 214.16 104.78 218.76 106.25C219.22 106.4 219.76 105.84 219.77 105.41C219.83 102.99 217.81 100.81 216.16 99.28C216.06 99.19 215.95 99.09 215.85 98.99C217.66 99.63 219.49 100.22 221.33 100.77C223.78 104.58 226.53 107.73 231.18 108.73C231.61 108.82 232.22 108.36 232.18 107.9C232.03 106 230.4 104.62 228.99 103.53C228.48 103.14 227.95 102.75 227.41 102.38C227.44 102.38 227.47 102.39 227.49 102.4C232.36 103.53 237.42 104.45 242.42 104.73C246.25 104.95 250.45 104.55 253.36 101.77C255.32 99.89 256.43 97.2 254.9 94.68L254.91 94.67ZM223.37 101.84C224.62 102.58 225.92 103.22 227.12 104.05C228.21 104.8 229.74 105.84 230.45 107.14C228.52 106.58 226.82 105.61 225.35 104.14C224.63 103.43 224 102.63 223.37 101.84ZM210.98 97.54C212.4 98.28 213.72 99.12 214.95 100.25C216.14 101.34 217.63 102.83 218.19 104.49C215.05 103.06 213.13 100.17 210.98 97.53V97.54ZM211.53 95.59C211.19 95.45 210.86 95.31 210.52 95.18C213.52 93.91 217.01 93.02 220.18 93.81C218.3 95.89 214.48 96.11 211.53 95.59ZM224.04 99.84C223.85 99.79 223.67 99.73 223.48 99.68C226.12 98.41 229.28 97.56 232.15 98.16C229.78 99.63 226.78 99.98 224.04 99.84Z" fill="#541920"/>
<path d="M110.39 101.76C113.3 104.54 117.5 104.94 121.33 104.72C126.33 104.44 131.39 103.52 136.26 102.39C136.29 102.39 136.32 102.38 136.34 102.37C135.79 102.74 135.26 103.13 134.76 103.52C133.35 104.61 131.72 105.99 131.57 107.89C131.53 108.35 132.14 108.81 132.57 108.72C137.23 107.72 139.97 104.57 142.42 100.76C144.26 100.21 146.09 99.62 147.9 98.98C147.79 99.08 147.69 99.17 147.59 99.27C145.94 100.8 143.92 102.98 143.98 105.4C143.99 105.83 144.53 106.38 144.99 106.24C149.6 104.77 152.58 100.26 155.07 96.37C155.1 96.32 155.12 96.26 155.12 96.2C159.35 94.43 163.56 92.55 168.06 91.61C171.13 90.97 174.94 90.49 177.66 92.42C180.45 94.38 180.39 97.87 178.34 100.36C176.33 102.8 172.56 103.35 169.83 101.72C168.09 100.68 168.06 98.49 169.18 96.96C169.66 96.31 170.3 95.8 171.11 95.67C173.4 95.31 173.23 98.66 171.32 97.92C170.72 97.69 170.73 98.54 171.19 98.74C172.43 99.28 173.9 98.69 174.11 97.23C174.31 95.85 172.97 94.7 171.74 94.43C167.73 93.56 165.72 99.09 168.12 101.79C170.65 104.65 176.06 104.7 178.82 102.26C181.92 99.52 182.25 95.03 179.23 92.14C175.62 88.67 169.96 89.42 165.55 90.59C161.62 91.62 157.88 93.25 154.13 94.82C150.87 92.67 145.87 91.57 142.2 92.74C141.87 92.85 141.74 93.19 141.94 93.5C143.2 95.52 145.69 96.72 148.31 97.1C145.97 97.95 143.6 98.73 141.21 99.42C138.08 97.25 133.51 95.99 129.84 97.18C129.29 97.36 129.49 97.95 129.84 98.24C131.23 99.46 133.25 100.46 135.34 100.95C134.6 101.12 133.86 101.28 133.11 101.44C128.29 102.43 123.06 103.48 118.11 103.25C115.49 103.13 112.72 102.51 110.91 100.46C109.68 99.06 109.33 97.3 110.35 95.65C112.06 92.92 115.98 91.23 118.9 93.15C120.17 93.98 120.21 95.55 119.52 96.8C119.23 97.33 118.8 97.81 118.19 97.95C117.21 98.18 116.82 97.1 117.94 96.92C118.93 96.76 117.93 95.34 117.16 95.44C113.65 95.93 116.35 100.17 119.08 99.44C122.53 98.52 122.07 93.76 119.65 92.06C116.07 89.55 111.02 91.05 108.84 94.66C107.32 97.18 108.42 99.87 110.38 101.75L110.39 101.76ZM138.4 104.14C136.93 105.61 135.23 106.57 133.3 107.14C134.02 105.84 135.54 104.8 136.63 104.05C137.83 103.23 139.14 102.58 140.38 101.84C139.74 102.63 139.12 103.42 138.4 104.14ZM145.55 104.5C146.11 102.84 147.6 101.35 148.79 100.26C150.02 99.13 151.35 98.29 152.76 97.55C150.61 100.19 148.68 103.08 145.55 104.51V104.5ZM143.56 93.81C146.73 93.01 150.22 93.91 153.22 95.18C152.88 95.32 152.55 95.46 152.21 95.59C149.26 96.11 145.44 95.89 143.56 93.81ZM131.59 98.17C134.46 97.57 137.62 98.42 140.26 99.69C140.07 99.74 139.89 99.8 139.7 99.85C136.96 99.99 133.96 99.64 131.59 98.17Z" fill="#541920"/>
</svg>
